# xmcd CD database file
#
# Track frame offsets:
#	150
#	15272
#	32375
#	42977
#	58045
#	74195
#	87692
#	101767
#	112595
#	129237
#	145277
#	158607
#	174805
#	189057
#	206045
#
# Disc length: 2917 seconds
#
# Revision: 0
# Processed by: cddbd v1.5.2PL0 Copyright (c) Steve Scherf et al.
# Submitted via: CDex 1.51
#
DISCID=be0b630f
DTITLE=Paul Weston - Easy Jazz
DYEAR=1999
DGENRE=Jazz
TTITLE0=Body and Soul
TTITLE1=Georgia on my Mind
TTITLE2=Lullaby in Rhythm
TTITLE3=My Funny Valentine
TTITLE4=You Are Too Beautiful
TTITLE5=Louisiana
TTITLE6=I'm Confessin'
TTITLE7=A Foggy Day
TTITLE8=When It's Sleepytime Down South
TTITLE9=Skylark
TTITLE10=Sweet Lorraine
TTITLE11=A Hundred Years From Today
TTITLE12=Autumn in New York
TTITLE13=Talk of the Town
TTITLE14=Nice Work if You Can Get It
EXTD=YEAR: 1999
EXTT0=
EXTT1=
EXTT2=
EXTT3=
EXTT4=
EXTT5=
EXTT6=
EXTT7=
EXTT8=
EXTT9=
EXTT10=
EXTT11=
EXTT12=
EXTT13=
EXTT14=
PLAYORDER=
